<?xml version="1.0" encoding="utf-8"?>
<!-- Generator: Adobe Illustrator 24.0.1, SVG Export Plug-In . SVG Version: 6.00 Build 0)  -->
<svg version="1.1" id="Layer_1" xmlns="http://www.w3.org/2000/svg" xmlns:xlink="http://www.w3.org/1999/xlink" x="0px" y="0px"
	 width="552.386px" height="451.792px" viewBox="0 0 552.386 451.792" style="enable-background:new 0 0 552.386 451.792;"
	 xml:space="preserve">
<style type="text/css">
	.st0{fill:#08A8D6;fill-opacity:0.75;}
	.st1{fill:#FFFFFF;}
	.st2{fill:url(#SVGID_1_);}
	.st3{fill:url(#SVGID_2_);}
	.st4{fill:url(#SVGID_3_);}
	.st5{fill:url(#SVGID_4_);}
	.st6{fill:url(#SVGID_5_);}
	.st7{fill:url(#SVGID_6_);}
	.st8{fill:#333333;}
</style>
<path class="st0" d="M179.601,174.51h193.183v94.43H179.601V174.51z"/>
<path class="st1" d="M374.096,270.251H178.29v-97.053h195.806V270.251z M180.913,267.628h190.56v-91.807h-190.56V267.628
	L180.913,267.628z"/>
<g>
	
		<linearGradient id="SVGID_1_" gradientUnits="userSpaceOnUse" x1="234.4233" y1="-343.1837" x2="317.9627" y2="-418.4023" gradientTransform="matrix(1 0 0 1 0 442)">
		<stop  offset="0" style="stop-color:#4ABFAC"/>
		<stop  offset="1" style="stop-color:#10B1D0"/>
	</linearGradient>
	<circle class="st2" cx="276.193" cy="61.207" r="56.206"/>
	
		<linearGradient id="SVGID_2_" gradientUnits="userSpaceOnUse" x1="399.4093" y1="-323.1837" x2="482.9487" y2="-398.4023" gradientTransform="matrix(1 0 0 1 0 442)">
		<stop  offset="0" style="stop-color:#4ABFAC"/>
		<stop  offset="1" style="stop-color:#10B1D0"/>
	</linearGradient>
	<circle class="st3" cx="441.179" cy="81.207" r="56.206"/>
	
		<linearGradient id="SVGID_3_" gradientUnits="userSpaceOnUse" x1="69.4373" y1="-323.1837" x2="152.9767" y2="-398.4023" gradientTransform="matrix(1 0 0 1 0 442)">
		<stop  offset="0" style="stop-color:#4ABFAC"/>
		<stop  offset="1" style="stop-color:#10B1D0"/>
	</linearGradient>
	<circle class="st4" cx="111.207" cy="81.207" r="56.206"/>
	<path class="st1" d="M68.522,68.089h3.575c2.125,0,3.446,1.205,3.446,3.031v0.026c0,2.033-1.632,3.096-3.627,3.096h-1.801v2.915
		h-1.593C68.522,77.157,68.522,68.089,68.522,68.089z M71.967,72.805c1.205,0,1.957-0.674,1.957-1.619V71.16
		c0-1.062-0.764-1.619-1.957-1.619h-1.853v3.265L71.967,72.805L71.967,72.805z M77.98,68.089h4.042c1.14,0,2.034,0.337,2.617,0.907
		c0.479,0.492,0.751,1.166,0.751,1.956v0.025c0,1.49-0.894,2.384-2.15,2.747l2.448,3.433h-1.892l-2.228-3.161h-1.995v3.161H77.98
		V68.089z M81.905,72.584c1.14,0,1.866-0.596,1.866-1.516v-0.025c0-0.972-0.7-1.503-1.879-1.503h-2.319v3.044H81.905z M87.749,72.65
		v-0.026c0-2.552,1.969-4.689,4.754-4.689c2.785,0,4.729,2.111,4.729,4.664v0.025c0,2.552-1.969,4.689-4.754,4.689
		C89.692,77.313,87.749,75.202,87.749,72.65z M95.561,72.65v-0.026c0-1.762-1.283-3.226-3.083-3.226c-1.801,0-3.057,1.438-3.057,3.2
		v0.025c0,1.762,1.282,3.213,3.083,3.213S95.561,74.412,95.561,72.65z M99.966,68.089h3.381c2.85,0,4.819,1.956,4.819,4.509v0.025
		c0,2.552-1.969,4.534-4.819,4.534h-3.381V68.089z M101.56,69.541v6.166h1.788c1.904,0,3.148-1.282,3.148-3.057v-0.026
		c0-1.774-1.244-3.083-3.148-3.083H101.56z M110.759,73.31v-5.221h1.594v5.156c0,1.684,0.868,2.578,2.293,2.578
		c1.412,0,2.28-0.843,2.28-2.514v-5.221h1.593v5.144c0,2.707-1.528,4.067-3.899,4.067C112.262,77.3,110.759,75.94,110.759,73.31z
		 M121.111,72.65v-0.026c0-2.578,1.93-4.689,4.676-4.689c1.671,0,2.682,0.583,3.55,1.412l-1.023,1.179
		c-0.726-0.674-1.503-1.127-2.539-1.127c-1.723,0-2.992,1.425-2.992,3.2v0.025c0,1.774,1.256,3.213,2.992,3.213
		c1.114,0,1.827-0.44,2.604-1.166l1.023,1.036c-0.946,0.984-1.982,1.606-3.679,1.606C123.081,77.313,121.111,75.253,121.111,72.65z
		 M131.878,68.089h6.723v1.425h-5.13v2.358h4.547v1.425h-4.547v2.436h5.195v1.425h-6.788L131.878,68.089L131.878,68.089z
		 M141.362,68.089h4.042c1.14,0,2.034,0.337,2.617,0.907c0.479,0.492,0.751,1.166,0.751,1.956v0.025c0,1.49-0.894,2.384-2.15,2.747
		l2.448,3.433h-1.891l-2.228-3.161h-1.995v3.161h-1.594C141.362,77.157,141.362,68.089,141.362,68.089z M145.288,72.584
		c1.14,0,1.865-0.596,1.865-1.516v-0.025c0-0.972-0.7-1.503-1.878-1.503h-2.319v3.044H145.288z M100.607,83.573h1.477l3.99,9.133
		h-1.684l-0.92-2.189h-4.288l-0.933,2.189h-1.632C96.617,92.706,100.607,83.573,100.607,83.573z M102.887,89.104l-1.567-3.627
		l-1.555,3.627H102.887z M108.434,83.637h3.576c2.124,0,3.446,1.205,3.446,3.031v0.026c0,2.033-1.632,3.096-3.627,3.096h-1.801
		v2.915h-1.593L108.434,83.637L108.434,83.637z M111.879,88.353c1.205,0,1.956-0.674,1.956-1.619v-0.026
		c0-1.062-0.764-1.619-1.956-1.619h-1.853v3.265L111.879,88.353L111.879,88.353z M117.892,83.637h3.576
		c2.124,0,3.446,1.205,3.446,3.031v0.026c0,2.033-1.632,3.096-3.627,3.096h-1.801v2.915h-1.593L117.892,83.637L117.892,83.637z
		 M121.337,88.353c1.205,0,1.956-0.674,1.956-1.619v-0.026c0-1.062-0.764-1.619-1.956-1.619h-1.853v3.265L121.337,88.353
		L121.337,88.353z"/>
	<g>
		<path class="st1" d="M233.508,48.089h3.575c2.125,0,3.446,1.205,3.446,3.031v0.026c0,2.033-1.632,3.096-3.627,3.096h-1.801v2.915
			h-1.593V48.089z M236.954,52.805c1.205,0,1.957-0.674,1.957-1.619V51.16c0-1.062-0.764-1.619-1.957-1.619h-1.853v3.265
			L236.954,52.805L236.954,52.805z M242.966,48.089h4.042c1.14,0,2.034,0.337,2.617,0.907c0.479,0.492,0.751,1.166,0.751,1.956
			v0.025c0,1.49-0.894,2.384-2.15,2.747l2.448,3.433h-1.892l-2.228-3.161h-1.995v3.161h-1.593L242.966,48.089L242.966,48.089z
			 M246.892,52.584c1.14,0,1.866-0.596,1.866-1.516v-0.025c0-0.972-0.7-1.503-1.879-1.503h-2.319v3.044H246.892z M252.735,52.65
			v-0.026c0-2.552,1.969-4.689,4.754-4.689c2.785,0,4.729,2.111,4.729,4.664v0.025c0,2.552-1.969,4.689-4.754,4.689
			C254.678,57.313,252.735,55.202,252.735,52.65L252.735,52.65z M260.547,52.65v-0.026c0-1.762-1.283-3.226-3.083-3.226
			c-1.801,0-3.057,1.438-3.057,3.2v0.025c0,1.762,1.282,3.213,3.083,3.213C259.291,55.836,260.547,54.412,260.547,52.65z
			 M264.953,48.089h3.381c2.85,0,4.819,1.956,4.819,4.509v0.025c0,2.552-1.969,4.534-4.819,4.534h-3.381V48.089z M266.546,49.541
			v6.166h1.788c1.904,0,3.148-1.282,3.148-3.057v-0.026c0-1.774-1.244-3.083-3.148-3.083H266.546z M275.746,53.31v-5.221h1.594
			v5.156c0,1.684,0.868,2.578,2.293,2.578c1.412,0,2.28-0.843,2.28-2.514v-5.221h1.593v5.144c0,2.707-1.528,4.067-3.899,4.067
			C277.249,57.3,275.746,55.94,275.746,53.31z M286.098,52.65v-0.026c0-2.578,1.93-4.689,4.676-4.689
			c1.671,0,2.682,0.583,3.55,1.412l-1.023,1.179c-0.726-0.674-1.503-1.127-2.539-1.127c-1.723,0-2.992,1.425-2.992,3.2v0.025
			c0,1.774,1.256,3.213,2.992,3.213c1.114,0,1.827-0.44,2.604-1.166l1.023,1.036c-0.946,0.984-1.982,1.606-3.679,1.606
			C288.067,57.313,286.098,55.253,286.098,52.65z M296.864,48.089h6.723v1.425h-5.13v2.358h4.547v1.425h-4.547v2.436h5.195v1.425
			h-6.788V48.089z M306.348,48.089h4.042c1.14,0,2.034,0.337,2.617,0.907c0.479,0.492,0.751,1.166,0.751,1.956v0.025
			c0,1.49-0.894,2.384-2.15,2.747l2.448,3.433h-1.891l-2.228-3.161h-1.995v3.161h-1.594L306.348,48.089L306.348,48.089z
			 M310.274,52.584c1.14,0,1.865-0.596,1.865-1.516v-0.025c0-0.972-0.7-1.503-1.878-1.503h-2.319v3.044H310.274z M265.594,63.573
			h1.477l3.99,9.133h-1.684l-0.92-2.189h-4.288l-0.933,2.189h-1.632L265.594,63.573L265.594,63.573z M267.874,69.104l-1.567-3.627
			l-1.555,3.627H267.874L267.874,69.104z M273.42,63.637h3.576c2.124,0,3.446,1.205,3.446,3.031v0.026
			c0,2.033-1.632,3.096-3.627,3.096h-1.801v2.915h-1.593v-9.068H273.42z M276.866,68.353c1.205,0,1.956-0.674,1.956-1.619v-0.026
			c0-1.062-0.764-1.619-1.956-1.619h-1.853v3.265L276.866,68.353L276.866,68.353z M282.878,63.637h3.576
			c2.124,0,3.446,1.205,3.446,3.031v0.026c0,2.033-1.632,3.096-3.627,3.096h-1.801v2.915h-1.593v-9.068H282.878z M286.324,68.353
			c1.205,0,1.956-0.674,1.956-1.619v-0.026c0-1.062-0.764-1.619-1.956-1.619h-1.853v3.265L286.324,68.353L286.324,68.353z"/>
	</g>
	<g>
		<path class="st1" d="M398.494,68.089h3.576c2.125,0,3.446,1.205,3.446,3.031v0.026c0,2.033-1.632,3.096-3.627,3.096h-1.801v2.915
			h-1.594V68.089z M401.94,72.805c1.205,0,1.956-0.674,1.956-1.619V71.16c0-1.062-0.765-1.619-1.956-1.619h-1.853v3.265
			L401.94,72.805L401.94,72.805z M407.952,68.089h4.042c1.141,0,2.034,0.337,2.617,0.907c0.479,0.492,0.751,1.166,0.751,1.956v0.025
			c0,1.49-0.894,2.384-2.15,2.747l2.449,3.433h-1.891l-2.229-3.161h-1.995v3.161h-1.593v-9.068H407.952z M411.877,72.584
			c1.14,0,1.865-0.596,1.865-1.516v-0.025c0-0.972-0.699-1.503-1.878-1.503h-2.319v3.044H411.877z M417.721,72.65v-0.026
			c0-2.552,1.969-4.689,4.754-4.689s4.728,2.111,4.728,4.664v0.025c0,2.552-1.969,4.689-4.754,4.689S417.721,75.202,417.721,72.65z
			 M425.533,72.65v-0.026c0-1.762-1.282-3.226-3.083-3.226s-3.058,1.438-3.058,3.2v0.025c0,1.762,1.283,3.213,3.083,3.213
			C424.276,75.836,425.533,74.412,425.533,72.65z M429.939,68.089h3.381c2.85,0,4.819,1.956,4.819,4.509v0.025
			c0,2.552-1.969,4.534-4.819,4.534h-3.381V68.089z M431.532,69.541v6.166h1.788c1.904,0,3.148-1.282,3.148-3.057v-0.026
			c0-1.774-1.244-3.083-3.148-3.083H431.532z M440.731,73.31v-5.221h1.593v5.156c0,1.684,0.868,2.578,2.293,2.578
			c1.412,0,2.28-0.843,2.28-2.514v-5.221h1.593v5.144c0,2.707-1.529,4.067-3.899,4.067C442.234,77.3,440.731,75.94,440.731,73.31z
			 M451.083,72.65v-0.026c0-2.578,1.93-4.689,4.677-4.689c1.671,0,2.682,0.583,3.549,1.412l-1.023,1.179
			c-0.725-0.674-1.502-1.127-2.539-1.127c-1.723,0-2.993,1.425-2.993,3.2v0.025c0,1.774,1.257,3.213,2.993,3.213
			c1.114,0,1.827-0.44,2.604-1.166l1.023,1.036c-0.946,0.984-1.982,1.606-3.679,1.606C453.052,77.313,451.083,75.253,451.083,72.65
			L451.083,72.65z M461.85,68.089h6.724v1.425h-5.13v2.358h4.547v1.425h-4.547v2.436h5.195v1.425h-6.788v-9.069
			C461.851,68.089,461.85,68.089,461.85,68.089z M471.334,68.089h4.042c1.14,0,2.034,0.337,2.617,0.907
			c0.479,0.492,0.751,1.166,0.751,1.956v0.025c0,1.49-0.894,2.384-2.15,2.747l2.449,3.433h-1.892l-2.229-3.161h-1.995v3.161h-1.593
			L471.334,68.089L471.334,68.089z M475.259,72.584c1.14,0,1.866-0.596,1.866-1.516v-0.025c0-0.972-0.7-1.503-1.878-1.503h-2.319
			v3.044H475.259L475.259,72.584z M430.58,83.573h1.477l3.99,9.133h-1.684l-0.919-2.189h-4.288l-0.933,2.189h-1.633L430.58,83.573
			L430.58,83.573z M432.86,89.104l-1.567-3.627l-1.555,3.627H432.86L432.86,89.104z M438.406,83.637h3.575
			c2.125,0,3.446,1.205,3.446,3.031v0.026c0,2.033-1.632,3.096-3.627,3.096h-1.801v2.915h-1.593L438.406,83.637L438.406,83.637z
			 M441.852,88.353c1.205,0,1.957-0.674,1.957-1.619v-0.026c0-1.062-0.765-1.619-1.957-1.619h-1.853v3.265L441.852,88.353
			L441.852,88.353z M447.864,83.637h3.575c2.125,0,3.446,1.205,3.446,3.031v0.026c0,2.033-1.632,3.096-3.627,3.096h-1.801v2.915
			h-1.593L447.864,83.637L447.864,83.637z M451.31,88.353c1.205,0,1.957-0.674,1.957-1.619v-0.026c0-1.062-0.765-1.619-1.957-1.619
			h-1.853v3.265L451.31,88.353L451.31,88.353z"/>
	</g>
</g>
<g>
	
		<linearGradient id="SVGID_4_" gradientUnits="userSpaceOnUse" x1="234.4235" y1="-16.8045" x2="317.9625" y2="-92.0235" gradientTransform="matrix(1 0 0 1 0 442)">
		<stop  offset="0" style="stop-color:#4ABFAC"/>
		<stop  offset="1" style="stop-color:#10B1D0"/>
	</linearGradient>
	<circle class="st5" cx="276.193" cy="387.586" r="56.206"/>
	
		<linearGradient id="SVGID_5_" gradientUnits="userSpaceOnUse" x1="399.4095" y1="-36.8044" x2="482.9485" y2="-112.0236" gradientTransform="matrix(1 0 0 1 0 442)">
		<stop  offset="0" style="stop-color:#4ABFAC"/>
		<stop  offset="1" style="stop-color:#10B1D0"/>
	</linearGradient>
	<circle class="st6" cx="441.179" cy="367.586" r="56.206"/>
	
		<linearGradient id="SVGID_6_" gradientUnits="userSpaceOnUse" x1="69.4375" y1="-36.8044" x2="152.9765" y2="-112.0236" gradientTransform="matrix(1 0 0 1 0 442)">
		<stop  offset="0" style="stop-color:#4ABFAC"/>
		<stop  offset="1" style="stop-color:#10B1D0"/>
	</linearGradient>
	<circle class="st7" cx="111.207" cy="367.586" r="56.206"/>
	<path class="st1" d="M67.44,359.029v-0.026c0-2.578,1.93-4.689,4.677-4.689c1.671,0,2.682,0.583,3.549,1.412l-1.023,1.179
		c-0.725-0.674-1.502-1.127-2.539-1.127c-1.723,0-2.993,1.425-2.993,3.2v0.025c0,1.774,1.257,3.213,2.993,3.213
		c1.114,0,1.827-0.44,2.604-1.166l1.023,1.036c-0.946,0.984-1.982,1.606-3.679,1.606C69.409,363.692,67.44,361.633,67.44,359.029z
		 M77.546,359.029v-0.026c0-2.552,1.969-4.689,4.754-4.689c2.785,0,4.729,2.111,4.729,4.664v0.025c0,2.552-1.969,4.689-4.754,4.689
		C79.489,363.692,77.546,361.581,77.546,359.029z M85.357,359.029v-0.026c0-1.762-1.283-3.226-3.083-3.226
		c-1.801,0-3.057,1.438-3.057,3.2v0.025c0,1.762,1.282,3.213,3.083,3.213S85.357,360.791,85.357,359.029z M89.764,354.469h1.477
		l4.857,6.271v-6.271h1.568v9.068h-1.334l-5-6.451v6.451h-1.567L89.764,354.469L89.764,354.469z M100.194,362.216l0.958-1.14
		c0.868,0.751,1.749,1.179,2.863,1.179c0.984,0,1.606-0.467,1.606-1.141v-0.025c0-0.647-0.363-0.998-2.047-1.387
		c-1.93-0.466-3.019-1.036-3.019-2.707v-0.026c0-1.555,1.296-2.63,3.096-2.63c1.322,0,2.371,0.402,3.291,1.141l-0.855,1.204
		c-0.816-0.608-1.632-0.933-2.461-0.933c-0.933,0-1.477,0.479-1.477,1.075v0.026c0,0.699,0.414,1.011,2.163,1.425
		c1.917,0.467,2.902,1.153,2.902,2.656v0.025c0,1.697-1.335,2.708-3.239,2.708C102.578,363.674,101.228,363.156,100.194,362.216
		L100.194,362.216z M109.755,359.689v-5.221h1.594v5.156c0,1.684,0.868,2.578,2.293,2.578c1.412,0,2.28-0.843,2.28-2.514v-5.221
		h1.593v5.144c0,2.707-1.528,4.067-3.899,4.067C111.258,363.68,109.755,362.319,109.755,359.689L109.755,359.689z M120.509,354.469
		h1.697l2.759,4.288l2.759-4.288h1.697v9.068h-1.593v-6.503l-2.863,4.274h-0.052l-2.837-4.249v6.478h-1.567V354.469z
		 M132.558,354.469h6.724v1.425h-5.13v2.358h4.547v1.425h-4.547v2.436h5.194v1.425h-6.788V354.469L132.558,354.469z
		 M142.042,354.469h4.042c1.14,0,2.034,0.337,2.617,0.907c0.479,0.492,0.751,1.166,0.751,1.956v0.025c0,1.49-0.894,2.384-2.15,2.747
		l2.448,3.433h-1.892l-2.228-3.161h-1.995v3.161h-1.593L142.042,354.469L142.042,354.469z M145.968,358.964
		c1.14,0,1.866-0.596,1.866-1.516v-0.025c0-0.972-0.7-1.503-1.879-1.503h-2.319v3.044L145.968,358.964L145.968,358.964z
		 M100.607,369.952h1.477l3.99,9.133h-1.684l-0.92-2.189h-4.288l-0.933,2.189h-1.632
		C96.617,379.085,100.607,369.952,100.607,369.952z M102.887,375.483l-1.567-3.627l-1.555,3.627H102.887z M108.434,370.017h3.576
		c2.124,0,3.446,1.205,3.446,3.031v0.026c0,2.033-1.632,3.096-3.627,3.096h-1.801v2.915h-1.593L108.434,370.017L108.434,370.017z
		 M111.879,374.732c1.205,0,1.956-0.674,1.956-1.619v-0.026c0-1.062-0.764-1.619-1.956-1.619h-1.853v3.265h1.853V374.732z
		 M117.892,370.017h3.576c2.124,0,3.446,1.205,3.446,3.031v0.026c0,2.033-1.632,3.096-3.627,3.096h-1.801v2.915h-1.593
		L117.892,370.017L117.892,370.017z M121.337,374.732c1.205,0,1.956-0.674,1.956-1.619v-0.026c0-1.062-0.764-1.619-1.956-1.619
		h-1.853v3.265h1.853V374.732z"/>
	<g>
		<path class="st1" d="M232.426,379.029v-0.026c0-2.578,1.93-4.689,4.677-4.689c1.671,0,2.682,0.583,3.549,1.412l-1.023,1.179
			c-0.725-0.674-1.502-1.127-2.539-1.127c-1.723,0-2.993,1.425-2.993,3.2v0.025c0,1.774,1.257,3.213,2.993,3.213
			c1.114,0,1.827-0.44,2.604-1.166l1.023,1.036c-0.946,0.984-1.982,1.606-3.679,1.606
			C234.395,383.692,232.426,381.633,232.426,379.029z M242.532,379.029v-0.026c0-2.552,1.969-4.689,4.754-4.689
			s4.729,2.111,4.729,4.664v0.025c0,2.552-1.969,4.689-4.754,4.689C244.475,383.692,242.532,381.581,242.532,379.029z
			 M250.344,379.029v-0.026c0-1.762-1.283-3.226-3.083-3.226c-1.801,0-3.057,1.438-3.057,3.2v0.025c0,1.762,1.282,3.213,3.083,3.213
			S250.344,380.791,250.344,379.029z M254.75,374.469h1.477l4.857,6.271v-6.271h1.568v9.068h-1.334l-5-6.451v6.451h-1.567
			L254.75,374.469L254.75,374.469z M265.18,382.216l0.958-1.14c0.868,0.751,1.749,1.179,2.863,1.179
			c0.984,0,1.606-0.467,1.606-1.141v-0.025c0-0.647-0.363-0.998-2.047-1.387c-1.93-0.466-3.019-1.036-3.019-2.707v-0.026
			c0-1.555,1.296-2.63,3.096-2.63c1.322,0,2.371,0.402,3.291,1.141l-0.855,1.204c-0.816-0.608-1.632-0.933-2.461-0.933
			c-0.933,0-1.477,0.479-1.477,1.075v0.026c0,0.699,0.414,1.011,2.163,1.425c1.917,0.467,2.902,1.153,2.902,2.656v0.025
			c0,1.697-1.335,2.708-3.239,2.708C267.563,383.673,266.214,383.156,265.18,382.216L265.18,382.216z M274.742,379.689v-5.221h1.594
			v5.156c0,1.684,0.868,2.578,2.293,2.578c1.412,0,2.28-0.843,2.28-2.514v-5.221h1.593v5.144c0,2.707-1.528,4.067-3.899,4.067
			C276.245,383.68,274.742,382.319,274.742,379.689L274.742,379.689z M285.496,374.469h1.697l2.759,4.288l2.759-4.288h1.697v9.068
			h-1.593v-6.503l-2.863,4.274H289.9l-2.837-4.249v6.478h-1.567V374.469z M297.544,374.469h6.724v1.425h-5.13v2.358h4.547v1.425
			h-4.547v2.436h5.194v1.425h-6.788V374.469L297.544,374.469z M307.029,374.469h4.042c1.14,0,2.034,0.337,2.617,0.907
			c0.479,0.492,0.751,1.166,0.751,1.956v0.025c0,1.49-0.894,2.384-2.15,2.747l2.448,3.433h-1.892l-2.228-3.161h-1.995v3.161h-1.593
			L307.029,374.469L307.029,374.469z M310.954,378.964c1.14,0,1.866-0.596,1.866-1.516v-0.025c0-0.972-0.7-1.503-1.879-1.503h-2.319
			v3.044L310.954,378.964L310.954,378.964z M265.594,389.952h1.477l3.99,9.133h-1.684l-0.92-2.189h-4.288l-0.933,2.189h-1.632
			L265.594,389.952L265.594,389.952z M267.874,395.483l-1.567-3.627l-1.555,3.627H267.874L267.874,395.483z M273.42,390.017h3.576
			c2.124,0,3.446,1.205,3.446,3.031v0.026c0,2.033-1.632,3.096-3.627,3.096h-1.801v2.915h-1.593v-9.068L273.42,390.017z
			 M276.866,394.732c1.205,0,1.956-0.674,1.956-1.619v-0.026c0-1.062-0.764-1.619-1.956-1.619h-1.853v3.265h1.853V394.732z
			 M282.878,390.017h3.576c2.124,0,3.446,1.205,3.446,3.031v0.026c0,2.033-1.632,3.096-3.627,3.096h-1.801v2.915h-1.593v-9.068
			L282.878,390.017z M286.324,394.732c1.205,0,1.956-0.674,1.956-1.619v-0.026c0-1.062-0.764-1.619-1.956-1.619h-1.853v3.265h1.853
			V394.732z"/>
	</g>
	<g>
		<path class="st1" d="M397.412,359.029v-0.026c0-2.578,1.93-4.689,4.676-4.689c1.671,0,2.682,0.583,3.55,1.412l-1.023,1.179
			c-0.726-0.674-1.503-1.127-2.539-1.127c-1.723,0-2.992,1.425-2.992,3.2v0.025c0,1.774,1.256,3.213,2.992,3.213
			c1.114,0,1.827-0.44,2.604-1.166l1.023,1.036c-0.946,0.984-1.982,1.606-3.679,1.606
			C399.381,363.692,397.412,361.633,397.412,359.029z M407.518,359.029v-0.026c0-2.552,1.969-4.689,4.754-4.689
			s4.728,2.111,4.728,4.664v0.025c0,2.552-1.969,4.689-4.754,4.689S407.518,361.581,407.518,359.029z M415.33,359.029v-0.026
			c0-1.762-1.282-3.226-3.083-3.226s-3.058,1.438-3.058,3.2v0.025c0,1.762,1.283,3.213,3.083,3.213
			C414.073,362.216,415.33,360.791,415.33,359.029z M419.736,354.469h1.477l4.858,6.271v-6.271h1.567v9.068h-1.334l-5-6.451v6.451
			h-1.567L419.736,354.469L419.736,354.469z M430.166,362.216l0.959-1.14c0.868,0.751,1.749,1.179,2.863,1.179
			c0.985,0,1.606-0.467,1.606-1.141v-0.025c0-0.647-0.363-0.998-2.047-1.387c-1.93-0.466-3.019-1.036-3.019-2.707v-0.026
			c0-1.555,1.295-2.63,3.096-2.63c1.321,0,2.371,0.402,3.291,1.141l-0.855,1.204c-0.816-0.608-1.632-0.933-2.461-0.933
			c-0.933,0-1.477,0.479-1.477,1.075v0.026c0,0.699,0.415,1.011,2.164,1.425c1.917,0.467,2.901,1.153,2.901,2.656v0.025
			c0,1.697-1.334,2.708-3.238,2.708C432.551,363.674,431.201,363.156,430.166,362.216L430.166,362.216z M439.728,359.689v-5.221
			h1.593v5.156c0,1.684,0.868,2.578,2.293,2.578c1.412,0,2.28-0.843,2.28-2.514v-5.221h1.593v5.144c0,2.707-1.529,4.067-3.899,4.067
			C441.23,363.68,439.728,362.319,439.728,359.689L439.728,359.689z M450.481,354.469h1.697l2.759,4.288l2.759-4.288h1.697v9.068
			H457.8v-6.503l-2.863,4.274h-0.052l-2.837-4.249v6.478h-1.567V354.469z M462.531,354.469h6.723v1.425h-5.13v2.358h4.547v1.425
			h-4.547v2.436h5.195v1.425h-6.788V354.469L462.531,354.469z M472.015,354.469h4.042c1.141,0,2.034,0.337,2.617,0.907
			c0.479,0.492,0.751,1.166,0.751,1.956v0.025c0,1.49-0.894,2.384-2.15,2.747l2.449,3.433h-1.891l-2.229-3.161h-1.995v3.161h-1.593
			L472.015,354.469L472.015,354.469z M475.94,358.964c1.14,0,1.865-0.596,1.865-1.516v-0.025c0-0.972-0.699-1.503-1.878-1.503
			h-2.319v3.044L475.94,358.964L475.94,358.964z M430.58,369.952h1.477l3.99,9.133h-1.684l-0.919-2.189h-4.288l-0.933,2.189h-1.633
			L430.58,369.952L430.58,369.952z M432.86,375.483l-1.567-3.627l-1.555,3.627H432.86L432.86,375.483z M438.406,370.017h3.575
			c2.125,0,3.446,1.205,3.446,3.031v0.026c0,2.033-1.632,3.096-3.627,3.096h-1.801v2.915h-1.593L438.406,370.017L438.406,370.017z
			 M441.852,374.732c1.205,0,1.957-0.674,1.957-1.619v-0.026c0-1.062-0.765-1.619-1.957-1.619h-1.853v3.265h1.853V374.732z
			 M447.864,370.017h3.575c2.125,0,3.446,1.205,3.446,3.031v0.026c0,2.033-1.632,3.096-3.627,3.096h-1.801v2.915h-1.593
			L447.864,370.017L447.864,370.017z M451.31,374.732c1.205,0,1.957-0.674,1.957-1.619v-0.026c0-1.062-0.765-1.619-1.957-1.619
			h-1.853v3.265h1.853V374.732z"/>
	</g>
</g>
<g>
	<path class="st8" d="M275.193,124.839h2v36.277h-2V124.839z"/>
	<path class="st8" d="M273.201,160.241l2.992,5.181l2.992-5.181H273.201z"/>
	<path class="st8" d="M164.544,131.49l1.414-1.414l25.652,25.651l-1.414,1.414L164.544,131.49z"/>
	<path class="st8" d="M188.17,157.931l5.78,1.548l-1.549-5.779L188.17,157.931z"/>
	<g>
		<path class="st8" d="M360.77,155.729l25.652-25.653l1.414,1.414l-25.652,25.653L360.77,155.729z"/>
		<path class="st8" d="M359.984,153.7l-1.548,5.779l5.779-1.548L359.984,153.7z"/>
	</g>
</g>
<g>
	<path class="st8" d="M275.193,282.966h2v36.277h-2V282.966z"/>
	<path class="st8" d="M273.201,318.368l2.992,5.181l2.992-5.181H273.201z"/>
</g>
<g>
	<path class="st8" d="M167.588,313.852l25.651-25.652l1.414,1.414l-25.651,25.652L167.588,313.852z"/>
	<path class="st8" d="M166.801,311.826l-1.548,5.779l5.779-1.548L166.801,311.826z"/>
</g>
<g>
	<path class="st8" d="M357.724,289.621l1.414-1.414l25.652,25.651l-1.414,1.414L357.724,289.621z"/>
	<path class="st8" d="M385.585,311.826l1.548,5.779l-5.779-1.548L385.585,311.826z"/>
</g>
<g>
	<path class="st1" d="M227.83,207.783h2.603l4.231,6.576l4.232-6.576h2.603v13.907h-2.444v-9.973l-4.391,6.556h-0.079l-4.351-6.517
		v9.934h-2.404L227.83,207.783L227.83,207.783z"/>
	<path class="st1" d="M245.077,207.783h10.311v2.185h-7.868v3.616h6.974v2.185h-6.974v3.735h7.967v2.186h-10.41V207.783z"/>
	<path class="st1" d="M257.457,219.663l1.47-1.749c1.331,1.152,2.682,1.808,4.391,1.808c1.51,0,2.464-0.715,2.464-1.749v-0.04
		c0-0.993-0.557-1.53-3.139-2.126c-2.96-0.715-4.629-1.589-4.629-4.152v-0.04c0-2.384,1.987-4.033,4.748-4.033
		c2.026,0,3.636,0.616,5.046,1.748l-1.312,1.848c-1.251-0.934-2.503-1.43-3.774-1.43c-1.431,0-2.265,0.735-2.265,1.649v0.04
		c0,1.073,0.636,1.55,3.318,2.186c2.94,0.715,4.45,1.768,4.45,4.073v0.04c0,2.603-2.046,4.152-4.967,4.152
		C261.132,221.888,259.125,221.153,257.457,219.663z"/>
	<path class="st1" d="M269.976,219.663l1.47-1.749c1.331,1.152,2.682,1.808,4.391,1.808c1.51,0,2.464-0.715,2.464-1.749v-0.04
		c0-0.993-0.557-1.53-3.139-2.126c-2.96-0.715-4.629-1.589-4.629-4.152v-0.04c0-2.384,1.987-4.033,4.748-4.033
		c2.027,0,3.635,0.616,5.046,1.748l-1.312,1.848c-1.251-0.934-2.503-1.43-3.774-1.43c-1.431,0-2.265,0.735-2.265,1.649v0.04
		c0,1.073,0.636,1.55,3.318,2.186c2.94,0.715,4.45,1.768,4.45,4.073v0.04c0,2.603-2.046,4.152-4.967,4.152
		C273.651,221.888,271.644,221.153,269.976,219.663z"/>
	<path class="st1" d="M288.256,207.683h2.265l6.119,14.006h-2.582l-1.411-3.357h-6.576l-1.43,3.357h-2.504L288.256,207.683z
		 M291.753,216.167l-2.404-5.563l-2.384,5.563H291.753z"/>
	<path class="st1" d="M297.536,214.776v-0.04c0-3.894,2.98-7.192,7.172-7.192c2.424,0,3.914,0.676,5.345,1.888l-1.55,1.848
		c-1.073-0.914-2.126-1.49-3.894-1.49c-2.563,0-4.51,2.245-4.51,4.907v0.04c0,2.861,1.887,4.967,4.728,4.967
		c1.312,0,2.504-0.417,3.358-1.053v-2.603h-3.557v-2.126h5.92v5.841c-1.37,1.172-3.337,2.166-5.801,2.166
		C300.397,221.928,297.536,218.829,297.536,214.776z"/>
	<path class="st1" d="M313.73,207.783h10.311v2.185h-7.867v3.616h6.974v2.185h-6.974v3.735h7.967v2.186h-10.41v-13.907H313.73z"/>
	<path class="st1" d="M233.583,227.783h6.238c1.589,0,2.841,0.437,3.636,1.231c0.616,0.616,0.934,1.371,0.934,2.305v0.04
		c0,1.669-0.954,2.563-1.987,3.1c1.629,0.556,2.762,1.49,2.762,3.377v0.04c0,2.483-2.046,3.814-5.146,3.814h-6.437L233.583,227.783
		L233.583,227.783z M241.946,231.716c0-1.093-0.874-1.768-2.443-1.768h-3.517v3.695h3.338c1.569,0,2.622-0.616,2.622-1.888V231.716z
		 M239.86,235.71h-3.874v3.814h4.053c1.669,0,2.682-0.656,2.682-1.907v-0.04C242.721,236.405,241.788,235.71,239.86,235.71z"/>
	<path class="st1" d="M247.929,227.783h6.198c1.749,0,3.119,0.517,4.013,1.391c0.735,0.755,1.152,1.788,1.152,3v0.04
		c0,2.285-1.371,3.655-3.298,4.212l3.755,5.265h-2.9l-3.417-4.848h-3.06v4.848h-2.443V227.783z M253.948,234.676
		c1.749,0,2.861-0.914,2.861-2.324v-0.04c0-1.49-1.073-2.305-2.88-2.305h-3.557v4.668L253.948,234.676L253.948,234.676z"/>
	<path class="st1" d="M261.68,234.776v-0.04c0-3.914,3.02-7.192,7.291-7.192s7.251,3.239,7.251,7.152v0.04
		c0,3.914-3.02,7.192-7.291,7.192S261.68,238.689,261.68,234.776z M273.659,234.776v-0.04c0-2.702-1.967-4.947-4.729-4.947
		c-2.761,0-4.688,2.205-4.688,4.907v0.04c0,2.702,1.967,4.927,4.729,4.927C271.732,239.663,273.659,237.478,273.659,234.776z"/>
	<path class="st1" d="M279.186,227.783h2.443v6.993l6.616-6.993h3.02l-5.801,5.98l6.059,7.927h-2.979l-4.748-6.258l-2.166,2.225
		v4.033h-2.443v-13.907H279.186z"/>
	<path class="st1" d="M293.611,227.783h10.311v2.185h-7.867v3.616h6.974v2.186h-6.974v3.734h7.967v2.186h-10.41v-13.907H293.611z"/>
	<path class="st1" d="M306.925,227.783h6.198c1.748,0,3.119,0.517,4.014,1.391c0.734,0.755,1.152,1.788,1.152,3v0.04
		c0,2.285-1.371,3.655-3.299,4.212l3.755,5.265h-2.9l-3.417-4.848h-3.06v4.848h-2.443L306.925,227.783L306.925,227.783z
		 M312.944,234.676c1.748,0,2.861-0.914,2.861-2.324v-0.04c0-1.49-1.073-2.305-2.881-2.305h-3.557v4.668L312.944,234.676
		L312.944,234.676z"/>
</g>
</svg>
